<mxfile host="app.diagrams.net" agent="Mozilla/5.0 (Windows NT 10.0; Win64; x64) AppleWebKit/537.36 (KHTML, like Gecko) Chrome/140.0.0.0 Safari/537.36" version="28.2.5">
  <diagram name="PÃ¡gina-1" id="Cu5KsKAQTv3SWcx6jceu">
    <mxGraphModel dx="872" dy="1640" grid="1" gridSize="10" guides="1" tooltips="1" connect="1" arrows="1" fold="1" page="1" pageScale="1" pageWidth="827" pageHeight="1169" math="0" shadow="0">
      <root>
        <mxCell id="0" />
        <mxCell id="1" parent="0" />
        <mxCell id="S5Q3rxSERtNnDsSMbGTJ-52" value="" style="rounded=0;whiteSpace=wrap;html=1;" parent="1" vertex="1">
          <mxGeometry x="90" y="-20" width="1250" height="680" as="geometry" />
        </mxCell>
        <mxCell id="S5Q3rxSERtNnDsSMbGTJ-1" value="Engine" style="swimlane;fontStyle=1;align=center;verticalAlign=top;childLayout=stackLayout;horizontal=1;startSize=26;horizontalStack=0;resizeParent=1;resizeParentMax=0;resizeLast=0;collapsible=1;marginBottom=0;whiteSpace=wrap;html=1;" parent="1" vertex="1">
          <mxGeometry x="480" y="60" width="180" height="110" as="geometry" />
        </mxCell>
        <mxCell id="S5Q3rxSERtNnDsSMbGTJ-2" value="- engineType: String&lt;div&gt;- fuelType: String&lt;/div&gt;&lt;div&gt;- horsePower:int&lt;/div&gt;" style="text;strokeColor=none;fillColor=none;align=left;verticalAlign=top;spacingLeft=4;spacingRight=4;overflow=hidden;rotatable=0;points=[[0,0.5],[1,0.5]];portConstraint=eastwest;whiteSpace=wrap;html=1;" parent="S5Q3rxSERtNnDsSMbGTJ-1" vertex="1">
          <mxGeometry y="26" width="180" height="54" as="geometry" />
        </mxCell>
        <mxCell id="S5Q3rxSERtNnDsSMbGTJ-3" value="&#xa;" style="line;strokeWidth=1;fillColor=none;align=left;verticalAlign=middle;spacingTop=-1;spacingLeft=3;spacingRight=3;rotatable=0;labelPosition=right;points=[];portConstraint=eastwest;strokeColor=inherit;" parent="S5Q3rxSERtNnDsSMbGTJ-1" vertex="1">
          <mxGeometry y="80" width="180" height="30" as="geometry" />
        </mxCell>
        <mxCell id="S5Q3rxSERtNnDsSMbGTJ-5" value="Tire" style="swimlane;fontStyle=1;align=center;verticalAlign=top;childLayout=stackLayout;horizontal=1;startSize=26;horizontalStack=0;resizeParent=1;resizeParentMax=0;resizeLast=0;collapsible=1;marginBottom=0;whiteSpace=wrap;html=1;" parent="1" vertex="1">
          <mxGeometry x="480" y="200" width="180" height="106" as="geometry" />
        </mxCell>
        <mxCell id="S5Q3rxSERtNnDsSMbGTJ-6" value="- rin: String&lt;div&gt;- tractionGrade: String&lt;/div&gt;&lt;div&gt;- speedRating: String&lt;/div&gt;" style="text;strokeColor=none;fillColor=none;align=left;verticalAlign=top;spacingLeft=4;spacingRight=4;overflow=hidden;rotatable=0;points=[[0,0.5],[1,0.5]];portConstraint=eastwest;whiteSpace=wrap;html=1;" parent="S5Q3rxSERtNnDsSMbGTJ-5" vertex="1">
          <mxGeometry y="26" width="180" height="52" as="geometry" />
        </mxCell>
        <mxCell id="S5Q3rxSERtNnDsSMbGTJ-7" value="" style="line;strokeWidth=1;fillColor=none;align=left;verticalAlign=middle;spacingTop=-1;spacingLeft=3;spacingRight=3;rotatable=0;labelPosition=right;points=[];portConstraint=eastwest;strokeColor=inherit;" parent="S5Q3rxSERtNnDsSMbGTJ-5" vertex="1">
          <mxGeometry y="78" width="180" height="28" as="geometry" />
        </mxCell>
        <mxCell id="S5Q3rxSERtNnDsSMbGTJ-9" value="SoundSystem" style="swimlane;fontStyle=1;align=center;verticalAlign=top;childLayout=stackLayout;horizontal=1;startSize=26;horizontalStack=0;resizeParent=1;resizeParentMax=0;resizeLast=0;collapsible=1;marginBottom=0;whiteSpace=wrap;html=1;" parent="1" vertex="1">
          <mxGeometry x="480" y="330" width="180" height="140" as="geometry" />
        </mxCell>
        <mxCell id="S5Q3rxSERtNnDsSMbGTJ-10" value="- brand: String&lt;div&gt;- model: String&lt;/div&gt;&lt;div&gt;- bluetoothEnabled : boolean&lt;/div&gt;&lt;div&gt;- touchScreenEnabled:boolean&lt;/div&gt;" style="text;strokeColor=none;fillColor=none;align=left;verticalAlign=top;spacingLeft=4;spacingRight=4;overflow=hidden;rotatable=0;points=[[0,0.5],[1,0.5]];portConstraint=eastwest;whiteSpace=wrap;html=1;" parent="S5Q3rxSERtNnDsSMbGTJ-9" vertex="1">
          <mxGeometry y="26" width="180" height="64" as="geometry" />
        </mxCell>
        <mxCell id="S5Q3rxSERtNnDsSMbGTJ-11" value="" style="line;strokeWidth=1;fillColor=none;align=left;verticalAlign=middle;spacingTop=-1;spacingLeft=3;spacingRight=3;rotatable=0;labelPosition=right;points=[];portConstraint=eastwest;strokeColor=inherit;" parent="S5Q3rxSERtNnDsSMbGTJ-9" vertex="1">
          <mxGeometry y="90" width="180" height="50" as="geometry" />
        </mxCell>
        <mxCell id="S5Q3rxSERtNnDsSMbGTJ-13" value="Car" style="swimlane;fontStyle=1;align=center;verticalAlign=top;childLayout=stackLayout;horizontal=1;startSize=26;horizontalStack=0;resizeParent=1;resizeParentMax=0;resizeLast=0;collapsible=1;marginBottom=0;whiteSpace=wrap;html=1;" parent="1" vertex="1">
          <mxGeometry x="170" y="150" width="160" height="160" as="geometry" />
        </mxCell>
        <mxCell id="S5Q3rxSERtNnDsSMbGTJ-14" value="&lt;div&gt;- engine: Engine&lt;/div&gt;&lt;div&gt;- sound:&amp;nbsp;&lt;span style=&quot;background-color: transparent; color: light-dark(rgb(0, 0, 0), rgb(255, 255, 255));&quot;&gt;SoundSystem&lt;/span&gt;&lt;/div&gt;&lt;div&gt;- tire:&amp;nbsp;&lt;span style=&quot;background-color: transparent; color: light-dark(rgb(0, 0, 0), rgb(255, 255, 255));&quot;&gt;Tire&lt;/span&gt;&lt;span style=&quot;background-color: transparent; color: light-dark(rgb(0, 0, 0), rgb(255, 255, 255));&quot;&gt;&amp;nbsp;&lt;/span&gt;&lt;/div&gt;&lt;div&gt;- navigation:&amp;nbsp;&lt;span style=&quot;background-color: transparent; color: light-dark(rgb(0, 0, 0), rgb(255, 255, 255));&quot;&gt;GPS&lt;/span&gt;&lt;/div&gt;&lt;div&gt;- color: String&lt;/div&gt;&lt;div&gt;- model: String&lt;/div&gt;&lt;div&gt;- brand: String&lt;/div&gt;" style="text;strokeColor=none;fillColor=none;align=left;verticalAlign=top;spacingLeft=4;spacingRight=4;overflow=hidden;rotatable=0;points=[[0,0.5],[1,0.5]];portConstraint=eastwest;whiteSpace=wrap;html=1;" parent="S5Q3rxSERtNnDsSMbGTJ-13" vertex="1">
          <mxGeometry y="26" width="160" height="104" as="geometry" />
        </mxCell>
        <mxCell id="S5Q3rxSERtNnDsSMbGTJ-15" value="" style="line;strokeWidth=1;fillColor=none;align=left;verticalAlign=middle;spacingTop=-1;spacingLeft=3;spacingRight=3;rotatable=0;labelPosition=right;points=[];portConstraint=eastwest;strokeColor=inherit;" parent="S5Q3rxSERtNnDsSMbGTJ-13" vertex="1">
          <mxGeometry y="130" width="160" height="30" as="geometry" />
        </mxCell>
        <mxCell id="S5Q3rxSERtNnDsSMbGTJ-17" value="GPS" style="swimlane;fontStyle=1;align=center;verticalAlign=top;childLayout=stackLayout;horizontal=1;startSize=26;horizontalStack=0;resizeParent=1;resizeParentMax=0;resizeLast=0;collapsible=1;marginBottom=0;whiteSpace=wrap;html=1;" parent="1" vertex="1">
          <mxGeometry x="480" y="500" width="180" height="100" as="geometry" />
        </mxCell>
        <mxCell id="S5Q3rxSERtNnDsSMbGTJ-18" value="- brand: String&lt;div&gt;- model: String&lt;/div&gt;" style="text;strokeColor=none;fillColor=none;align=left;verticalAlign=top;spacingLeft=4;spacingRight=4;overflow=hidden;rotatable=0;points=[[0,0.5],[1,0.5]];portConstraint=eastwest;whiteSpace=wrap;html=1;" parent="S5Q3rxSERtNnDsSMbGTJ-17" vertex="1">
          <mxGeometry y="26" width="180" height="54" as="geometry" />
        </mxCell>
        <mxCell id="S5Q3rxSERtNnDsSMbGTJ-19" value="" style="line;strokeWidth=1;fillColor=none;align=left;verticalAlign=middle;spacingTop=-1;spacingLeft=3;spacingRight=3;rotatable=0;labelPosition=right;points=[];portConstraint=eastwest;strokeColor=inherit;" parent="S5Q3rxSERtNnDsSMbGTJ-17" vertex="1">
          <mxGeometry y="80" width="180" height="20" as="geometry" />
        </mxCell>
        <mxCell id="S5Q3rxSERtNnDsSMbGTJ-21" value="CarBuilder" style="swimlane;fontStyle=1;align=center;verticalAlign=top;childLayout=stackLayout;horizontal=1;startSize=26;horizontalStack=0;resizeParent=1;resizeParentMax=0;resizeLast=0;collapsible=1;marginBottom=0;whiteSpace=wrap;html=1;" parent="1" vertex="1">
          <mxGeometry x="820" y="165" width="160" height="420" as="geometry" />
        </mxCell>
        <mxCell id="S5Q3rxSERtNnDsSMbGTJ-22" value="&lt;div&gt;- engine: Engine&lt;/div&gt;&lt;div&gt;- sound:&amp;nbsp;&lt;span style=&quot;background-color: transparent; color: light-dark(rgb(0, 0, 0), rgb(255, 255, 255));&quot;&gt;SoundSystem&lt;/span&gt;&lt;/div&gt;&lt;div&gt;- tire:&amp;nbsp;&lt;span style=&quot;background-color: transparent; color: light-dark(rgb(0, 0, 0), rgb(255, 255, 255));&quot;&gt;Tire&lt;/span&gt;&lt;span style=&quot;background-color: transparent; color: light-dark(rgb(0, 0, 0), rgb(255, 255, 255));&quot;&gt;&amp;nbsp;&lt;/span&gt;&lt;/div&gt;&lt;div&gt;- navigation:&amp;nbsp;&lt;span style=&quot;background-color: transparent; color: light-dark(rgb(0, 0, 0), rgb(255, 255, 255));&quot;&gt;GPS&lt;/span&gt;&lt;/div&gt;&lt;div&gt;- color: String&lt;/div&gt;&lt;div&gt;- model: String&lt;/div&gt;&lt;div&gt;- brand: String&lt;/div&gt;" style="text;strokeColor=none;fillColor=none;align=left;verticalAlign=top;spacingLeft=4;spacingRight=4;overflow=hidden;rotatable=0;points=[[0,0.5],[1,0.5]];portConstraint=eastwest;whiteSpace=wrap;html=1;" parent="S5Q3rxSERtNnDsSMbGTJ-21" vertex="1">
          <mxGeometry y="26" width="160" height="134" as="geometry" />
        </mxCell>
        <mxCell id="S5Q3rxSERtNnDsSMbGTJ-23" value="" style="line;strokeWidth=1;fillColor=none;align=left;verticalAlign=middle;spacingTop=-1;spacingLeft=3;spacingRight=3;rotatable=0;labelPosition=right;points=[];portConstraint=eastwest;strokeColor=inherit;" parent="S5Q3rxSERtNnDsSMbGTJ-21" vertex="1">
          <mxGeometry y="160" width="160" height="8" as="geometry" />
        </mxCell>
        <mxCell id="S5Q3rxSERtNnDsSMbGTJ-24" value="+ build(): Car&lt;div&gt;&lt;br&gt;&lt;/div&gt;&lt;div&gt;+ engine() : CarBuiderl&lt;/div&gt;&lt;div&gt;&lt;br&gt;&lt;/div&gt;&lt;div&gt;+ sound(): CarBuilder&lt;/div&gt;&lt;div&gt;&lt;br&gt;&lt;/div&gt;&lt;div&gt;+ tire(): CarBuilder&lt;/div&gt;&lt;div&gt;&lt;br&gt;&lt;/div&gt;&lt;div&gt;+ navigation(): CarBuilder&lt;/div&gt;&lt;div&gt;&lt;br&gt;&lt;/div&gt;&lt;div&gt;+ color(): CarBuilder&lt;/div&gt;&lt;div&gt;&lt;br&gt;&lt;/div&gt;&lt;div&gt;+ brand(): CarBuilder&lt;/div&gt;&lt;div&gt;&lt;br&gt;&lt;/div&gt;&lt;div&gt;+ model(): CarBuilder&lt;/div&gt;" style="text;strokeColor=none;fillColor=none;align=left;verticalAlign=top;spacingLeft=4;spacingRight=4;overflow=hidden;rotatable=0;points=[[0,0.5],[1,0.5]];portConstraint=eastwest;whiteSpace=wrap;html=1;" parent="S5Q3rxSERtNnDsSMbGTJ-21" vertex="1">
          <mxGeometry y="168" width="160" height="252" as="geometry" />
        </mxCell>
        <mxCell id="S5Q3rxSERtNnDsSMbGTJ-26" value="Client&lt;div&gt;&lt;br&gt;&lt;/div&gt;" style="swimlane;fontStyle=1;align=center;verticalAlign=top;childLayout=stackLayout;horizontal=1;startSize=26;horizontalStack=0;resizeParent=1;resizeParentMax=0;resizeLast=0;collapsible=1;marginBottom=0;whiteSpace=wrap;html=1;" parent="1" vertex="1">
          <mxGeometry x="1081" y="375" width="160" height="100" as="geometry" />
        </mxCell>
        <mxCell id="S5Q3rxSERtNnDsSMbGTJ-28" value="" style="line;strokeWidth=1;fillColor=none;align=left;verticalAlign=middle;spacingTop=-1;spacingLeft=3;spacingRight=3;rotatable=0;labelPosition=right;points=[];portConstraint=eastwest;strokeColor=inherit;" parent="S5Q3rxSERtNnDsSMbGTJ-26" vertex="1">
          <mxGeometry y="26" width="160" height="24" as="geometry" />
        </mxCell>
        <mxCell id="S5Q3rxSERtNnDsSMbGTJ-29" value="+ main() :void&lt;div&gt;- createCar(): void&lt;/div&gt;" style="text;strokeColor=none;fillColor=none;align=left;verticalAlign=top;spacingLeft=4;spacingRight=4;overflow=hidden;rotatable=0;points=[[0,0.5],[1,0.5]];portConstraint=eastwest;whiteSpace=wrap;html=1;" parent="S5Q3rxSERtNnDsSMbGTJ-26" vertex="1">
          <mxGeometry y="50" width="160" height="50" as="geometry" />
        </mxCell>
        <mxCell id="S5Q3rxSERtNnDsSMbGTJ-31" value="" style="endArrow=block;dashed=1;endFill=0;endSize=12;html=1;rounded=0;entryX=0;entryY=0.5;entryDx=0;entryDy=0;" parent="1" source="S5Q3rxSERtNnDsSMbGTJ-22" target="S5Q3rxSERtNnDsSMbGTJ-48" edge="1">
          <mxGeometry width="160" relative="1" as="geometry">
            <mxPoint x="460" y="450" as="sourcePoint" />
            <mxPoint x="1090" y="213.9999999999999" as="targetPoint" />
          </mxGeometry>
        </mxCell>
        <mxCell id="S5Q3rxSERtNnDsSMbGTJ-34" value="implements" style="edgeLabel;html=1;align=center;verticalAlign=middle;resizable=0;points=[];" parent="S5Q3rxSERtNnDsSMbGTJ-31" vertex="1" connectable="0">
          <mxGeometry x="-0.3101" y="-2" relative="1" as="geometry">
            <mxPoint x="4" y="-15" as="offset" />
          </mxGeometry>
        </mxCell>
        <mxCell id="S5Q3rxSERtNnDsSMbGTJ-32" value="" style="endArrow=open;endFill=1;endSize=12;html=1;rounded=0;exitX=0.002;exitY=0.04;exitDx=0;exitDy=0;entryX=1.013;entryY=0.376;entryDx=0;entryDy=0;entryPerimeter=0;exitPerimeter=0;" parent="1" source="S5Q3rxSERtNnDsSMbGTJ-29" target="S5Q3rxSERtNnDsSMbGTJ-24" edge="1">
          <mxGeometry width="160" relative="1" as="geometry">
            <mxPoint x="460" y="450" as="sourcePoint" />
            <mxPoint x="620" y="450" as="targetPoint" />
          </mxGeometry>
        </mxCell>
        <mxCell id="S5Q3rxSERtNnDsSMbGTJ-35" value="&amp;lt; uses" style="edgeLabel;html=1;align=center;verticalAlign=middle;resizable=0;points=[];" parent="S5Q3rxSERtNnDsSMbGTJ-32" vertex="1" connectable="0">
          <mxGeometry x="-0.0616" y="2" relative="1" as="geometry">
            <mxPoint y="6" as="offset" />
          </mxGeometry>
        </mxCell>
        <mxCell id="S5Q3rxSERtNnDsSMbGTJ-36" value="1" style="endArrow=none;html=1;endSize=12;startArrow=diamondThin;startSize=14;startFill=1;align=left;verticalAlign=bottom;rounded=0;exitX=0.975;exitY=0.173;exitDx=0;exitDy=0;exitPerimeter=0;entryX=0;entryY=0.5;entryDx=0;entryDy=0;endFill=0;edgeStyle=orthogonalEdgeStyle;" parent="1" source="S5Q3rxSERtNnDsSMbGTJ-14" target="S5Q3rxSERtNnDsSMbGTJ-2" edge="1">
          <mxGeometry x="-1" y="3" relative="1" as="geometry">
            <mxPoint x="460" y="270" as="sourcePoint" />
            <mxPoint x="620" y="270" as="targetPoint" />
            <mxPoint as="offset" />
          </mxGeometry>
        </mxCell>
        <mxCell id="GamKBD2VuUMQq1QtwmPy-1" value="contains &amp;gt;" style="edgeLabel;html=1;align=center;verticalAlign=middle;resizable=0;points=[];" vertex="1" connectable="0" parent="S5Q3rxSERtNnDsSMbGTJ-36">
          <mxGeometry x="0.5064" y="-1" relative="1" as="geometry">
            <mxPoint x="8" y="-14" as="offset" />
          </mxGeometry>
        </mxCell>
        <mxCell id="S5Q3rxSERtNnDsSMbGTJ-37" value="" style="endArrow=open;endFill=1;endSize=12;html=1;rounded=0;exitX=0.5;exitY=0;exitDx=0;exitDy=0;entryX=0.5;entryY=0;entryDx=0;entryDy=0;edgeStyle=orthogonalEdgeStyle;" parent="1" source="S5Q3rxSERtNnDsSMbGTJ-21" target="S5Q3rxSERtNnDsSMbGTJ-13" edge="1">
          <mxGeometry width="160" relative="1" as="geometry">
            <mxPoint x="150" y="640" as="sourcePoint" />
            <mxPoint x="250" y="717" as="targetPoint" />
            <Array as="points">
              <mxPoint x="880" y="20" />
              <mxPoint x="250" y="20" />
            </Array>
          </mxGeometry>
        </mxCell>
        <mxCell id="S5Q3rxSERtNnDsSMbGTJ-38" value="&amp;lt; builds" style="edgeLabel;html=1;align=center;verticalAlign=middle;resizable=0;points=[];" parent="S5Q3rxSERtNnDsSMbGTJ-37" vertex="1" connectable="0">
          <mxGeometry x="-0.0616" y="2" relative="1" as="geometry">
            <mxPoint as="offset" />
          </mxGeometry>
        </mxCell>
        <mxCell id="S5Q3rxSERtNnDsSMbGTJ-39" value="1" style="endArrow=none;html=1;endSize=12;startArrow=diamondThin;startSize=14;startFill=1;align=left;verticalAlign=bottom;rounded=0;exitX=1.014;exitY=0.421;exitDx=0;exitDy=0;exitPerimeter=0;entryX=0;entryY=0.5;entryDx=0;entryDy=0;endFill=0;edgeStyle=orthogonalEdgeStyle;" parent="1" source="S5Q3rxSERtNnDsSMbGTJ-14" target="S5Q3rxSERtNnDsSMbGTJ-6" edge="1">
          <mxGeometry x="-1" y="3" relative="1" as="geometry">
            <mxPoint x="500" y="341" as="sourcePoint" />
            <mxPoint x="654" y="260" as="targetPoint" />
          </mxGeometry>
        </mxCell>
        <mxCell id="S5Q3rxSERtNnDsSMbGTJ-41" value="1" style="endArrow=none;html=1;endSize=12;startArrow=diamondThin;startSize=14;startFill=1;align=left;verticalAlign=bottom;rounded=0;entryX=0;entryY=0.5;entryDx=0;entryDy=0;endFill=0;exitX=1.018;exitY=0.931;exitDx=0;exitDy=0;edgeStyle=orthogonalEdgeStyle;exitPerimeter=0;" parent="1" source="S5Q3rxSERtNnDsSMbGTJ-14" target="S5Q3rxSERtNnDsSMbGTJ-10" edge="1">
          <mxGeometry x="-1" y="3" relative="1" as="geometry">
            <mxPoint x="430" y="300" as="sourcePoint" />
            <mxPoint x="578" y="332" as="targetPoint" />
          </mxGeometry>
        </mxCell>
        <mxCell id="S5Q3rxSERtNnDsSMbGTJ-42" value="1" style="endArrow=none;html=1;endSize=12;startArrow=diamondThin;startSize=14;startFill=1;align=left;verticalAlign=bottom;rounded=0;entryX=0;entryY=0.5;entryDx=0;entryDy=0;endFill=0;edgeStyle=orthogonalEdgeStyle;" parent="1" target="S5Q3rxSERtNnDsSMbGTJ-18" edge="1">
          <mxGeometry x="-1" y="3" relative="1" as="geometry">
            <mxPoint x="240" y="310" as="sourcePoint" />
            <mxPoint x="580" y="510" as="targetPoint" />
          </mxGeometry>
        </mxCell>
        <mxCell id="S5Q3rxSERtNnDsSMbGTJ-44" value="" style="endArrow=open;endFill=1;endSize=12;html=1;rounded=0;entryX=1;entryY=0.5;entryDx=0;entryDy=0;exitX=-0.008;exitY=0.182;exitDx=0;exitDy=0;exitPerimeter=0;edgeStyle=orthogonalEdgeStyle;" parent="1" source="S5Q3rxSERtNnDsSMbGTJ-22" target="S5Q3rxSERtNnDsSMbGTJ-2" edge="1">
          <mxGeometry width="160" relative="1" as="geometry">
            <mxPoint x="630" y="210" as="sourcePoint" />
            <mxPoint x="790" y="210" as="targetPoint" />
          </mxGeometry>
        </mxCell>
        <mxCell id="GamKBD2VuUMQq1QtwmPy-4" value="&amp;lt; builds" style="edgeLabel;html=1;align=center;verticalAlign=middle;resizable=0;points=[];" vertex="1" connectable="0" parent="S5Q3rxSERtNnDsSMbGTJ-44">
          <mxGeometry x="-0.1566" y="1" relative="1" as="geometry">
            <mxPoint as="offset" />
          </mxGeometry>
        </mxCell>
        <mxCell id="S5Q3rxSERtNnDsSMbGTJ-45" value="" style="endArrow=open;endFill=1;endSize=12;html=1;rounded=0;entryX=1.002;entryY=0.612;entryDx=0;entryDy=0;exitX=0;exitY=0.5;exitDx=0;exitDy=0;entryPerimeter=0;" parent="1" source="S5Q3rxSERtNnDsSMbGTJ-22" target="S5Q3rxSERtNnDsSMbGTJ-6" edge="1">
          <mxGeometry width="160" relative="1" as="geometry">
            <mxPoint x="859" y="367" as="sourcePoint" />
            <mxPoint x="720" y="280" as="targetPoint" />
          </mxGeometry>
        </mxCell>
        <mxCell id="S5Q3rxSERtNnDsSMbGTJ-46" value="" style="endArrow=open;endFill=1;endSize=12;html=1;rounded=0;entryX=1;entryY=0.5;entryDx=0;entryDy=0;exitX=0;exitY=0.5;exitDx=0;exitDy=0;edgeStyle=orthogonalEdgeStyle;" parent="1" source="S5Q3rxSERtNnDsSMbGTJ-24" target="S5Q3rxSERtNnDsSMbGTJ-10" edge="1">
          <mxGeometry width="160" relative="1" as="geometry">
            <mxPoint x="800" y="350" as="sourcePoint" />
            <mxPoint x="740" y="345" as="targetPoint" />
            <Array as="points">
              <mxPoint x="820" y="388" />
            </Array>
          </mxGeometry>
        </mxCell>
        <mxCell id="S5Q3rxSERtNnDsSMbGTJ-47" value="" style="endArrow=open;endFill=1;endSize=12;html=1;rounded=0;entryX=1;entryY=0.5;entryDx=0;entryDy=0;exitX=0;exitY=0.5;exitDx=0;exitDy=0;edgeStyle=orthogonalEdgeStyle;" parent="1" source="S5Q3rxSERtNnDsSMbGTJ-24" target="S5Q3rxSERtNnDsSMbGTJ-18" edge="1">
          <mxGeometry width="160" relative="1" as="geometry">
            <mxPoint x="930" y="506" as="sourcePoint" />
            <mxPoint x="770" y="440" as="targetPoint" />
            <Array as="points">
              <mxPoint x="820" y="553" />
            </Array>
          </mxGeometry>
        </mxCell>
        <mxCell id="S5Q3rxSERtNnDsSMbGTJ-48" value="&lt;p style=&quot;margin:0px;margin-top:4px;text-align:center;&quot;&gt;&lt;i&gt;&amp;lt;&amp;lt;Interface&amp;gt;&amp;gt;&lt;/i&gt;&lt;br&gt;&lt;b&gt;IBuilder &amp;lt;T&amp;gt;&lt;/b&gt;&lt;/p&gt;&lt;hr size=&quot;1&quot; style=&quot;border-style:solid;&quot;&gt;&lt;p style=&quot;margin:0px;margin-left:4px;&quot;&gt;&lt;br&gt;&lt;/p&gt;&lt;hr size=&quot;1&quot; style=&quot;border-style:solid;&quot;&gt;&lt;p style=&quot;margin:0px;margin-left:4px;&quot;&gt;+ build(): T&lt;/p&gt;" style="verticalAlign=top;align=left;overflow=fill;html=1;whiteSpace=wrap;" parent="1" vertex="1">
          <mxGeometry x="1081" y="208" width="160" height="100" as="geometry" />
        </mxCell>
        <mxCell id="S5Q3rxSERtNnDsSMbGTJ-50" value="CarBuilder" style="shape=umlFrame;whiteSpace=wrap;html=1;pointerEvents=0;width=110;height=30;" parent="1" vertex="1">
          <mxGeometry x="120" width="1170" height="650" as="geometry" />
        </mxCell>
        <mxCell id="GamKBD2VuUMQq1QtwmPy-2" value="contains &amp;gt;" style="edgeLabel;html=1;align=center;verticalAlign=middle;resizable=0;points=[];" vertex="1" connectable="0" parent="1">
          <mxGeometry x="440" y="260" as="geometry" />
        </mxCell>
        <mxCell id="GamKBD2VuUMQq1QtwmPy-3" value="contains &amp;gt;" style="edgeLabel;html=1;align=center;verticalAlign=middle;resizable=0;points=[];" vertex="1" connectable="0" parent="1">
          <mxGeometry x="270" y="340" as="geometry" />
        </mxCell>
        <mxCell id="GamKBD2VuUMQq1QtwmPy-5" value="&amp;lt; builds" style="edgeLabel;html=1;align=center;verticalAlign=middle;resizable=0;points=[];" vertex="1" connectable="0" parent="1">
          <mxGeometry x="740" y="250" as="geometry" />
        </mxCell>
        <mxCell id="GamKBD2VuUMQq1QtwmPy-6" value="&amp;lt; builds" style="edgeLabel;html=1;align=center;verticalAlign=middle;resizable=0;points=[];" vertex="1" connectable="0" parent="1">
          <mxGeometry x="740" y="380" as="geometry" />
        </mxCell>
        <mxCell id="GamKBD2VuUMQq1QtwmPy-7" value="&amp;lt; builds" style="edgeLabel;html=1;align=center;verticalAlign=middle;resizable=0;points=[];" vertex="1" connectable="0" parent="1">
          <mxGeometry x="740" y="540" as="geometry" />
        </mxCell>
      </root>
    </mxGraphModel>
  </diagram>
</mxfile>
